<svg xmlns="http://www.w3.org/2000/svg" width="100%" height="100%" viewBox="0 0 31 5" fill-rule="nonzero" stroke-linejoin="round" stroke-miterlimit="2"><path d="M.211 2.341l1.657-.822a.38.38 0 0 1 .548.339c0 .149-.087.284-.223.345l-1.411.64 1.415.658a.38.38 0 0 1 .219.343v.011a.38.38 0 0 1-.548.339L.211 3.372A.38.38 0 0 1 0 3.033v-.352a.38.38 0 0 1 .211-.34zm30.298 1.031l-1.657.822a.38.38 0 0 1-.548-.339c0-.149.087-.284.223-.345l1.411-.64-1.415-.658a.38.38 0 0 1-.219-.343v-.011a.38.38 0 0 1 .548-.339l1.657.822a.38.38 0 0 1 .211.34v.352a.38.38 0 0 1-.211.339z" fill="#6366f1"/><g fill="#eab308"><path d="M19.058 4.187h0l.286-.286-.286.286z"/><path d="M21.593 3.04c-.092.796-.808 1.432-1.61 1.434-.118 0-.233-.012-.344-.036l-.47.47c-.058.058-.133.086-.208.086a.29.29 0 0 1-.208-.086c-.115-.115-.115-.301 0-.416l.305-.305.286-.286.01-.011a.27.27 0 0 1 .28-.063h.002l.026.009c.138.045.289.061.446.042.468-.056.834-.417.898-.883a1.04 1.04 0 0 0-1.093-1.181 1.04 1.04 0 0 0-.969.972c-.008.14.011.275.054.399a.29.29 0 0 1-.07.299l-.287.287a1.62 1.62 0 0 1-.287-.923V.301c0-.153.114-.287.267-.3.175-.015.321.122.321.293v1.304a1.62 1.62 0 0 1 1.037-.375 1.63 1.63 0 0 1 1.614 1.817z"/><path d="M19.156 2.75s.082-.547.606-.69c.072-.02.142.035.142.109v.007c0 .057-.042.105-.099.113-.126.02-.362.107-.649.461z"/></g><g fill="#6366f1"><path d="M4.774 1.682c.321-.315.705-.473 1.152-.473a1.66 1.66 0 0 1 .642.127l.012.005a1.64 1.64 0 0 1 .523.371c.059.061.089.133.089.218v.012c-.003.089-.036.164-.1.223s-.134.089-.221.089h-.007c-.088-.003-.161-.037-.221-.101a1.05 1.05 0 0 0-.311-.225H6.32c-.126-.055-.257-.082-.394-.082a.95.95 0 0 0-.696.287c-.195.194-.292.426-.292.697s.097.505.292.696.425.292.696.292c.137 0 .267-.027.39-.08s.232-.129.327-.228c.06-.064.133-.097.221-.1h.012c.085 0 .157.031.216.093a.3.3 0 0 1 .1.224v.011c0 .08-.03.152-.089.214-.153.162-.331.287-.535.373a1.58 1.58 0 0 1-.642.134c-.447 0-.831-.159-1.152-.478-.315-.317-.473-.701-.473-1.151s.158-.829.473-1.148z"/><path d="M4.792 1.699c-.31.313-.467.693-.467 1.131a1.56 1.56 0 0 0 .467 1.134c.31.311.695.471 1.134.471.219 0 .432-.045.632-.132a1.56 1.56 0 0 0 .527-.368c.056-.058.083-.123.083-.197v-.011c-.003-.085-.033-.152-.093-.205-.056-.059-.121-.087-.199-.087h-.012c-.081.002-.148.033-.203.092a1.02 1.02 0 0 1-.336.233c-.125.055-.259.082-.399.082a.97.97 0 0 1-.714-.299c-.198-.195-.298-.435-.298-.713s.1-.516.298-.714a.98.98 0 0 1 .714-.294c.138 0 .272.027.399.082l.017.002c.119.055.226.133.319.23.055.06.122.09.204.093h.006a.28.28 0 0 0 .204-.082c.059-.055.09-.123.093-.206V1.93c0-.079-.027-.145-.082-.201a1.62 1.62 0 0 0-.516-.366l-.011-.004c-.201-.084-.414-.126-.633-.126-.439 0-.82.157-1.134.466zm1.134 2.785c-.452 0-.845-.163-1.169-.485-.319-.321-.481-.714-.481-1.169s.162-.843.481-1.165h0c.324-.319.717-.481 1.169-.481a1.69 1.69 0 0 1 .652.13l.011.004a1.67 1.67 0 0 1 .532.377c.063.065.096.144.096.235v.012c-.004.096-.04.177-.108.241a.33.33 0 0 1-.238.095h-.007c-.095-.003-.175-.039-.239-.108-.087-.091-.187-.165-.299-.217l-.016-.002a.94.94 0 0 0-.384-.08c-.263 0-.492.094-.679.279a.93.93 0 0 0-.284.68.92.92 0 0 0 .284.679.93.93 0 0 0 .679.284c.133 0 .261-.026.38-.078a1 1 0 0 0 .32-.222c.063-.068.143-.104.237-.107h.013c.091 0 .17.034.234.101.067.06.103.141.107.239v.012a.33.33 0 0 1-.096.231c-.155.164-.338.291-.543.379a1.65 1.65 0 0 1-.652.136zm2.4-.958c.192.194.425.292.696.292a.94.94 0 0 0 .697-.292c.196-.191.294-.423.294-.696a.94.94 0 0 0-.294-.697.95.95 0 0 0-.697-.287.95.95 0 0 0-.696.287c-.195.194-.292.426-.292.697a.94.94 0 0 0 .292.696zM7.87 1.682c.321-.315.705-.473 1.152-.473a1.57 1.57 0 0 1 1.15.473 1.57 1.57 0 0 1 .476 1.148 1.57 1.57 0 0 1-.476 1.151 1.56 1.56 0 0 1-1.15.478c-.447 0-.831-.159-1.152-.478-.315-.317-.473-.701-.473-1.151a1.57 1.57 0 0 1 .473-1.148z"/><path d="M9.022 1.871c-.263 0-.492.094-.679.279a.93.93 0 0 0-.284.68.92.92 0 0 0 .284.679h0a.93.93 0 0 0 .679.284.92.92 0 0 0 .679-.284c.191-.186.287-.414.287-.679a.93.93 0 0 0-.286-.68c-.186-.185-.415-.279-.68-.279zm0 1.971c-.277 0-.517-.1-.714-.298a.97.97 0 0 1-.298-.714c0-.276.1-.516.298-.714a.98.98 0 0 1 .714-.294.97.97 0 0 1 .714.294c.2.198.301.438.301.714a.97.97 0 0 1-.301.714c-.2.196-.435.298-.714.298zM7.888 1.699c-.31.313-.467.693-.467 1.131a1.56 1.56 0 0 0 .467 1.134c.31.311.695.471 1.134.471s.822-.158 1.133-.471a1.55 1.55 0 0 0 .468-1.134 1.55 1.55 0 0 0-.468-1.131c-.311-.309-.692-.466-1.133-.466a1.56 1.56 0 0 0-1.134.466zm1.134 2.785c-.452 0-.845-.163-1.169-.485s-.481-.714-.481-1.169.162-.843.481-1.165h0c.324-.319.717-.481 1.169-.481a1.6 1.6 0 0 1 1.167.481c.321.322.483.714.483 1.165s-.162.848-.483 1.169a1.59 1.59 0 0 1-1.167.485zm2.757-.958c.193.194.425.292.697.292a.94.94 0 0 0 .696-.292c.196-.191.294-.423.294-.696a.94.94 0 0 0-.294-.697c-.196-.194-.423-.287-.696-.287s-.504.096-.697.287a.95.95 0 0 0-.291.697.94.94 0 0 0 .291.696zm-.455-1.844c.32-.315.704-.473 1.152-.473.414 0 .744.109.99.328V.74c0-.085.03-.159.091-.221a.31.31 0 0 1 .228-.096c.09 0 .16.031.221.091.063.066.095.141.095.226v2.09c0 .45-.158.834-.476 1.151a1.56 1.56 0 0 1-1.149.478 1.57 1.57 0 0 1-1.152-.478 1.57 1.57 0 0 1-.474-1.151 1.57 1.57 0 0 1 .474-1.148z"/><path d="M12.476 1.871c-.264 0-.492.094-.68.279a.93.93 0 0 0-.284.68.93.93 0 0 0 .284.679h.001c.187.188.415.284.679.284s.493-.096.679-.284a.92.92 0 0 0 .287-.679.93.93 0 0 0-.287-.68.93.93 0 0 0-.679-.279zm0 1.971a.97.97 0 0 1-.714-.298.97.97 0 0 1-.299-.714.98.98 0 0 1 .299-.714.98.98 0 0 1 .714-.294c.278 0 .519.098.714.294a.99.99 0 0 1 .301.714.97.97 0 0 1-.302.714c-.194.198-.435.298-.713.298zm-1.135-2.143a1.56 1.56 0 0 0-.466 1.131c0 .441.157.823.466 1.134.314.313.696.471 1.135.471s.821-.158 1.132-.471a1.55 1.55 0 0 0 .469-1.134V.74c0-.079-.029-.147-.089-.208s-.123-.084-.203-.084a.28.28 0 0 0-.21.088c-.057.058-.084.125-.084.204v.851l-.041-.036c-.24-.214-.568-.322-.974-.322-.439 0-.821.157-1.135.466zm1.135 2.785a1.6 1.6 0 0 1-1.169-.485 1.6 1.6 0 0 1-.481-1.169 1.6 1.6 0 0 1 .48-1.165h.001a1.61 1.61 0 0 1 1.169-.481c.396 0 .72.101.966.3V.74a.33.33 0 0 1 .097-.238.33.33 0 0 1 .246-.103c.092 0 .173.033.238.098a.34.34 0 0 1 .103.243v2.09a1.6 1.6 0 0 1-.483 1.169c-.321.322-.713.485-1.167.485zm2.62-1.971h1.873c-.033-.126-.113-.253-.241-.38-.191-.191-.423-.287-.696-.287s-.504.096-.697.287a.85.85 0 0 0-.239.38zm-.216-.831c.32-.315.704-.473 1.152-.473a1.57 1.57 0 0 1 1.149.473 1.57 1.57 0 0 1 .476 1.148c0 .091-.032.167-.096.227a.29.29 0 0 1-.22.098h-2.245c.032.123.112.247.239.371a.98.98 0 0 0 .724.292c.155 0 .295-.02.421-.06a1.29 1.29 0 0 0 .344-.168c.06-.049.126-.073.198-.073.012 0 .024.001.036.002.087.011.158.05.214.119.052.062.078.133.078.214v.02c-.009.087-.05.158-.121.214-.165.12-.345.213-.539.278s-.407.095-.631.095c-.466 0-.859-.159-1.179-.478a1.57 1.57 0 0 1-.474-1.151 1.57 1.57 0 0 1 .474-1.148z"/><path d="M15.128 2.489h1.809c-.037-.112-.113-.225-.226-.339a.93.93 0 0 0-.679-.279c-.264 0-.493.094-.68.279-.113.114-.188.227-.224.339zm1.873.049h-1.937l.008-.031c.033-.13.116-.261.246-.391.196-.196.437-.294.714-.294s.518.098.714.294c.129.13.213.261.247.391l.008.031zm-2.104-.839a1.56 1.56 0 0 0-.466 1.131c0 .441.157.823.466 1.134.314.313.705.471 1.162.471a2.03 2.03 0 0 0 .623-.094c.191-.064.37-.157.533-.275.065-.052.102-.116.11-.196v-.018a.3.3 0 0 0-.072-.199.29.29 0 0 0-.198-.109c-.077-.01-.15.013-.216.065a1.35 1.35 0 0 1-.351.173 1.44 1.44 0 0 1-.429.06 1 1 0 0 1-.741-.299c-.13-.126-.213-.255-.246-.382l-.008-.03h2.277c.08 0 .146-.03.202-.09s.089-.127.089-.211a1.55 1.55 0 0 0-.468-1.131c-.311-.309-.692-.466-1.132-.466s-.821.157-1.135.466zm1.162 2.785c-.471 0-.873-.163-1.197-.485s-.48-.714-.48-1.169a1.6 1.6 0 0 1 .48-1.165h0c.324-.319.717-.481 1.17-.481a1.6 1.6 0 0 1 1.167.481 1.6 1.6 0 0 1 .483 1.165c0 .097-.035.18-.104.245s-.144.105-.237.105h-2.212c.035.108.11.218.223.329a.96.96 0 0 0 .707.284 1.37 1.37 0 0 0 .414-.058 1.3 1.3 0 0 0 .337-.165c.074-.06.161-.086.251-.075a.34.34 0 0 1 .23.127c.055.067.083.144.083.23v.02c-.01.096-.053.173-.13.233-.167.122-.351.216-.547.282s-.412.097-.638.097z"/></g><g fill="#eab308"><path d="M22.014.747c0-.09.031-.166.092-.229s.137-.095.227-.095.161.032.224.095.095.139.095.229-.032.165-.095.227a.31.31 0 0 1-.224.094.31.31 0 0 1-.227-.094c-.061-.062-.092-.138-.092-.227zm-.004.778c0-.088.031-.163.093-.225a.32.32 0 0 1 .228-.091c.088 0 .163.03.225.091s.091.137.091.225v2.611c0 .09-.03.166-.091.228a.3.3 0 0 1-.225.095.31.31 0 0 1-.228-.095.31.31 0 0 1-.093-.228V1.525z"/><path d="M22.333.448c-.083 0-.152.028-.209.087a.29.29 0 0 0-.085.212.28.28 0 0 0 .085.21.28.28 0 0 0 .209.086c.084 0 .148-.028.207-.086a.28.28 0 0 0 .087-.21.29.29 0 0 0-.087-.212.28.28 0 0 0-.207-.087zm0 .644a.33.33 0 0 1-.244-.101c-.066-.066-.099-.149-.099-.244a.34.34 0 0 1 .099-.246c.066-.068.148-.102.244-.102a.33.33 0 0 1 .241.101c.068.068.102.151.102.247a.33.33 0 0 1-.102.245.33.33 0 0 1-.241.1zm-.002.141c-.083 0-.152.028-.211.084a.28.28 0 0 0-.086.208v2.611c0 .084.028.153.086.211a.29.29 0 0 0 .211.088c.082 0 .149-.029.207-.088s.084-.127.084-.211V1.525c0-.082-.027-.15-.084-.208s-.125-.084-.207-.084zm0 3.251c-.095 0-.177-.035-.245-.103s-.101-.149-.101-.245V1.525c0-.094.034-.176.101-.243s.15-.098.245-.098.175.033.242.098.099.149.099.243v2.611c0 .096-.033.178-.099.245a.33.33 0 0 1-.242.103zm1.311-2.802c.32-.315.704-.473 1.152-.473a1.57 1.57 0 0 1 1.149.473c.318.319.476.701.476 1.148v1.306c0 .09-.032.166-.096.228a.29.29 0 0 1-.22.095.3.3 0 0 1-.228-.095.31.31 0 0 1-.093-.228V2.83c0-.271-.097-.503-.292-.697a.94.94 0 0 0-.696-.287c-.273 0-.504.096-.697.287a.95.95 0 0 0-.291.697v1.306c0 .09-.031.166-.094.228s-.135.095-.225.095a.3.3 0 0 1-.225-.095.31.31 0 0 1-.094-.228V2.83a1.57 1.57 0 0 1 .474-1.148z"/><path d="M24.794 1.822c.278 0 .519.098.714.294s.298.438.298.714v1.306c0 .084.028.153.086.211a.28.28 0 0 0 .211.088.27.27 0 0 0 .203-.088.28.28 0 0 0 .089-.211V2.83c0-.438-.158-.818-.469-1.131s-.692-.466-1.132-.466-.821.157-1.135.466a1.56 1.56 0 0 0-.466 1.131v1.306c0 .084.028.153.086.211s.128.088.208.088.151-.029.208-.088.086-.127.086-.211V2.83a.98.98 0 0 1 .299-.714c.196-.196.437-.294.714-.294zm1.309 2.662a.33.33 0 0 1-.246-.103c-.066-.066-.1-.149-.1-.245V2.83a.93.93 0 0 0-.284-.68.93.93 0 0 0-.679-.279c-.264 0-.493.094-.68.279s-.284.418-.284.68v1.306c0 .096-.034.179-.1.245s-.147.103-.243.103-.174-.035-.243-.103-.1-.149-.1-.245V2.83c0-.451.162-.843.48-1.165h.001a1.61 1.61 0 0 1 1.169-.481 1.6 1.6 0 0 1 1.167.481 1.6 1.6 0 0 1 .483 1.165v1.306a.33.33 0 0 1-.103.245c-.065.068-.145.103-.238.103z"/></g></svg>